<svg width="62" height="39" viewBox="0 0 62 39" fill="none" xmlns="http://www.w3.org/2000/svg">
<g id="Logo">
<path id="Vector 5" d="M29.8621 11.5442H9.22699C9.22699 12.0115 9.31308 12.2316 9.35613 12.2832C9.789 12.9937 10.7773 14.606 11.2673 15.3705C11.7573 16.1349 12.5169 16.4241 12.8354 16.4731H29.5704C35.3774 18.8743 32.6822 24.1422 29.5704 24.8346H25.625C25.1639 24.8059 24.0821 24.7658 23.443 24.8346C22.8038 24.9033 22.165 25.5891 21.9254 25.9234L19.7003 29.6571H29.8621C41.6122 27.9223 39.4625 12.4972 29.8621 11.5442Z" fill="#ADFF00"/>
<path id="Subtract" fill-rule="evenodd" clip-rule="evenodd" d="M0.579712 0H44.3822C64.7609 2.023 69.3241 34.766 44.3822 38.4485H22.8115L27.2742 30.9603H30.4406C33.0096 30.581 34.9421 29.5747 36.3 28.2116H43.763C50.3684 26.742 56.0896 15.5596 43.763 10.4625H8.23942C7.56327 10.3585 5.95093 9.74479 4.91071 8.12204C3.87049 6.4993 1.77271 3.07697 0.853845 1.56865C0.762467 1.45908 0.579712 0.991959 0.579712 0Z" fill="#ADFF00"/>
</g>
</svg>
